   <svg
                      width="20"
                      height="20"
                      version="1.1"
                      id="Layer_1"
                      xmlns="http://www.w3.org/2000/svg"
                      xmlns:xlink="http://www.w3.org/1999/xlink"
                      x="0px"
                      y="0px"
                      viewBox="0 0 20 20"
                      style="enable-background: new 0 0 20 20"
                      xml:space="preserve">
                      <style type="text/css">
                      .st0 {
                        fill: #231f20;
                      }
                      .st1 {
                        fill: #ffffff;
                      }
                    </style>
                      <g>
                        <path
                          class="st0"
                          d="M17.2,19.9H2.8c-1.5,0-2.7-1.2-2.7-2.7V2.8c0-1.5,1.2-2.7,2.7-2.7h14.5c1.5,0,2.7,1.2,2.7,2.7v14.5
		C19.9,18.7,18.7,19.9,17.2,19.9z" />
                        <path
                          class="st1"
                          d="M10.7,8.2C11,8.5,11.2,8.7,11.5,9c-2.3,2.2-4.4,4.7-7.2,6.4c1.4-0.4,2.6-1,3.7-1.9c0.5,0.5,1,1,1.5,1.5
		c-0.4,0.3-0.7,0.6-1.1,1c-0.8,0.7-1.6,1.2-2.6,1.7c-1.2,0.5-2.5,0.6-3.8,0.5c-0.2,0-0.3,0-0.6-0.1c0-0.6-0.1-1.3-0.1-1.9
		c0-1.6,0.7-3,1.7-4.3c0.5-0.6,1-1.1,1.5-1.7c0.7,0.7,1.4,1.4,2,2L10.7,8.2z" />
                        <g>
                          <path
                            class="st1"
                            d="M11,10.1c0.8,0.8,1.5,1.5,2.3,2.2c-0.3,0.3-0.5,0.5-0.8,0.8c-0.8-0.8-1.5-1.5-2.3-2.3L11,10.1z" />
                          <path
                            class="st1"
                            d="M13,14.4c-0.2-0.2-0.4-0.4-0.5-0.6c0.5-0.5,0.9-0.9,1.4-1.4c0.2,0.1,0.4,0.3,0.6,0.5c1.5-1.5,3.1-3.1,4.6-4.6
			c0,0,0,0,0,0c0,0.2-0.1,0.3-0.1,0.5c-0.4,1.2-1.1,2.4-1.8,3.4c-0.4,0.6-0.9,1.2-1.4,1.9c0.1,0.1,0.2,0.2,0.3,0.3
			c-0.6,0.6-1.1,1.1-1.7,1.7c-0.1-0.1-0.2-0.2-0.3-0.3c-1.7,1.5-3.5,2.8-5.8,3.3C9.9,17.5,11.5,16,13,14.4z" />
                        </g>
                        <path
                          class="st1"
                          d="M18.2,5.1c-1,1.3-2.5,2-4.1,2.2c-0.1,0-0.2,0-0.3,0c-0.4,0-0.7,0.2-0.9,0.5c-0.2,0.2-0.4,0.4-0.6,0.6
		c-0.3-0.3-0.7-0.7-1-1c0.3-0.3,0.6-0.6,0.9-0.9c0.1-0.1,0.1-0.2,0.1-0.3c0.1-0.6,0.2-1.2,0.4-1.9c0.2-0.9,0.7-1.7,1.4-2.4
		c0.2-0.2,0.4-0.4,0.6-0.6C15.8,2.7,17,3.9,18.2,5.1z M14,3.4c-0.6,1-0.8,2-0.9,3.1c0,0.1,0.1,0.1,0.1,0.1c0.4-0.1,0.8-0.1,1.2-0.2
		c0.7-0.1,1.3-0.4,1.8-0.7C15.6,4.9,14.8,4.1,14,3.4z" />
                        <path
                          class="st1"
                          d="M1.5,2.2C1.8,2,2,1.7,2.3,1.4c2,2,5.2,5.2,7.2,7.2C9.3,8.9,9,9.2,8.8,9.4C6.8,7.4,3.5,4.2,1.5,2.2z" />
                        <path d="M18.2,18.2" />
                        <path d="M1.5,1.4" />
                      </g>
                    </svg>

