<svg width="20" height="20" version="1.1" id="Layer_1" xmlns="http://www.w3.org/2000/svg"
    xmlns:xlink="http://www.w3.org/1999/xlink" x="0px" y="0px" viewBox="0 0 20 20"
    style="enable-background: new 0 0 20 20" xml:space="preserve">
    <style type="text/css">
        .st0 {
            fill: #231f20;
        }

        .st1 {
            fill: #ffffff;
        }
    </style>
    <g>
        <path class="st0" d="M2.7,0l14.5,0c1.5,0,2.7,1.2,2.7,2.7v14.5c0,1.5-1.2,2.7-2.7,2.7H2.7c-1.5,0-2.7-1.2-2.7-2.7L0,2.7
		C0,1.2,1.2,0,2.7,0z" />
        <path class="st1" d="M9.3,11.8c-0.3-0.3-0.6-0.6-0.8-0.8c2.3-2.2,4.4-4.7,7.2-6.4c-1.4,0.4-2.6,1-3.7,1.9c-0.5-0.5-1-1-1.5-1.5
		c0.4-0.3,0.7-0.7,1.1-1c0.8-0.7,1.6-1.2,2.6-1.7c1.2-0.5,2.5-0.6,3.8-0.5c0.2,0,0.3,0,0.6,0.1c0,0.6,0.1,1.3,0.1,1.9
		c0,1.6-0.7,3-1.7,4.3c-0.5,0.6-1,1.2-1.5,1.7c-0.7-0.7-1.4-1.4-2-2L9.3,11.8z" />
        <g>
            <path class="st1" d="M8.9,9.8C8.1,9,7.4,8.3,6.6,7.5C6.9,7.2,7.2,7,7.5,6.7C8.2,7.5,9,8.3,9.8,9L8.9,9.8z" />
            <path class="st1" d="M6.9,5.5c0.2,0.2,0.4,0.4,0.5,0.6C6.9,6.6,6.5,7,6,7.5C5.8,7.4,5.6,7.2,5.4,7c-1.6,1.6-3.1,3.1-4.6,4.6
			c0,0,0,0,0,0c0-0.2,0.1-0.3,0.1-0.5c0.4-1.2,1.1-2.4,1.8-3.4c0.4-0.6,0.9-1.2,1.4-1.9C4,5.8,3.9,5.7,3.8,5.6
			C4.4,5,4.9,4.4,5.5,3.9C5.6,4,5.7,4.1,5.8,4.2c1.7-1.5,3.5-2.8,5.8-3.3C10,2.4,8.5,3.9,6.9,5.5z" />
        </g>
        <path class="st1" d="M1.7,14.8c1.1-1.4,2.5-2,4.1-2.3c0.1,0,0.2,0,0.3,0c0.4,0,0.7-0.2,0.9-0.5c0.2-0.2,0.4-0.4,0.6-0.6
		c0.3,0.3,0.7,0.7,1,1c-0.3,0.3-0.6,0.6-0.9,0.9c-0.1,0.1-0.1,0.2-0.1,0.3c-0.1,0.6-0.2,1.2-0.4,1.9c-0.2,0.9-0.7,1.7-1.4,2.4
		c-0.2,0.2-0.4,0.4-0.6,0.6C4.1,17.3,2.9,16,1.7,14.8z M5.9,16.6c0.6-1,0.8-2,0.9-3.1c0-0.1-0.1-0.1-0.1-0.1
		c-0.4,0.1-0.8,0.1-1.2,0.2c-0.7,0.1-1.3,0.4-1.8,0.7C4.4,15,5.1,15.8,5.9,16.6z" />
        <path class="st1" d="M18.4,17.7c-0.2,0.2-0.5,0.5-0.8,0.8c-2-2-5.2-5.2-7.2-7.2c0.2-0.2,0.5-0.5,0.8-0.8
		C13.2,12.5,16.4,15.7,18.4,17.7z" />
        <path d="M1.7,1.7" />
        <path d="M18.5,18.5" />
    </g>
</svg>