<svg version="1.0" xmlns="http://www.w3.org/2000/svg" width="20px" height="20px" viewBox="0 0 4990 4990"
    preserveAspectRatio="xMidYMid meet">
    <g id="layer101" fill="#21201e" stroke="none">
        <path d="M0 2495 l0 -2495 2495 0 2495 0 0 2495 0 2495 -2495 0 -2495 0 0 -2495z" />
    </g>
    <g id="layer102" fill="#fefefe" stroke="none">
        <path
            d="M1 3813 c1 -707 5 -1142 10 -1088 76 821 550 1546 1276 1953 282 158 627 267 931 293 65 6 122 12 127 14 6 2 -520 4 -1167 4 l-1178 1 1 -1177z" />
        <path
            d="M2730 4979 c1123 -107 2039 -959 2225 -2069 9 -52 20 -133 24 -180 5 -49 9 413 10 1088 l1 1172 -1172 -1 c-675 -1 -1137 -5 -1088 -10z" />
        <path
            d="M1484 3656 c-57 -18 -102 -54 -132 -106 l-27 -45 -3 -984 c-3 -1106 -6 -1057 68 -1131 74 -74 25 -71 1131 -68 l984 3 46 27 c54 32 94 86 109 148 8 32 10 337 8 1026 l-3 981 -30 49 c-19 30 -49 60 -79 79 l-49 30 -991 2 c-786 1 -999 -1 -1032 -11z" />
        <path
            d="M4977 2303 c-19 -471 -217 -972 -546 -1380 -94 -118 -296 -315 -406 -400 -389 -295 -828 -468 -1300 -512 -54 -5 381 -9 1088 -10 l1177 -1 0 1220 c0 671 -2 1220 -4 1220 -2 0 -6 -62 -9 -137z" />
        <path
            d="M2 1178 l-2 -1178 1223 2 c699 0 1162 4 1082 9 -468 25 -949 210 -1345 517 -117 91 -306 277 -401 395 -232 288 -391 602 -483 958 -24 94 -62 327 -69 424 -2 28 -4 -480 -5 -1127z" />
    </g>

</svg>