 <svg
                      width="20"
                      height="20"
                      version="1.1"
                      id="Layer_1"
                      xmlns="http://www.w3.org/2000/svg"
                      xmlns:xlink="http://www.w3.org/1999/xlink"
                      x="0px"
                      y="0px"
                      viewBox="0 0 20 20"
                      style="enable-background: new 0 0 20 20"
                      xml:space="preserve">
                      <style type="text/css">
                      .st0 {
                        fill: #231f20;
                      }
                      .st1 {
                        fill: #ffffff;
                      }
                    </style>
                      <path
                        class="st0"
                        d="M17.3,20H2.7C1.2,20,0,18.8,0,17.3V2.7C0,1.2,1.2,0,2.7,0h14.5C18.8,0,20,1.2,20,2.7v14.5
	C20,18.8,18.8,20,17.3,20z" />
                      <path d="M17.8,16.7" />
                      <path d="M2.5,1.4" />
                      <g>
                        <g>
                          <path
                            class="st1"
                            d="M17.7,10.2c0,1.9-0.7,3.6-1.9,4.9c0.2,0.2,0.4,0.6,0.8,1c1.5-1.5,2.4-3.6,2.4-5.9c0-2.4-1-4.6-2.7-6.2
			c-0.4,0.2-0.8,0.4-1.2,0.6C16.6,6,17.7,8,17.7,10.2z" />
                          <path
                            class="st1"
                            d="M13.9,16.6c-1,0.5-2.2,0.9-3.4,0.9c-3.1,0-5.8-2-6.8-4.7c-0.3,0.3-0.6,0.7-0.9,1c0,0,0,0,0,0
			c1.3,2.9,4.3,4.9,7.7,4.9c1.5,0,2.9-0.4,4.2-1.1C14.3,17.1,14,16.8,13.9,16.6z" />
                          <path
                            class="st1"
                            d="M3.2,10.6c0-0.1,0-0.3,0-0.4c0-4,3.2-7.2,7.2-7.2c1.1,0,2.1,0.2,3,0.6c0.5-0.2,1-0.4,1.6-0.6
			c-1.3-0.8-2.9-1.3-4.5-1.3C5.8,1.7,2,5.5,2,10.2c0,0.6,0.1,1.1,0.2,1.6C2.5,11.5,2.8,11,3.2,10.6z" />
                        </g>
                        <path
                          class="st1"
                          d="M11,9.3c-0.5,0.3-0.9,0.7-1.4,1c5.4,7.2,3,4,6.3,8.4H18C13.7,12.9,16.7,17,11,9.3z" />
                        <path
                          class="st1"
                          d="M0.9,14.1c0.6,0,1.1,0,1.5-0.6c1.2-1.4,2.5-2.6,4-3.7c0.5-0.4,1-0.6,1.6-0.1c0,0,0.1,0,0.2,0.1
		C7.8,9.1,7.4,8.5,6.9,8C5.4,8.7,1.7,12.5,0.9,14.1z" />
                        <path
                          class="st1"
                          d="M9,6C8.3,6.5,7.7,7,7,7.5c0.7,0.9,1.4,1.8,2.1,2.7c0.7-0.5,1.3-1,2-1.5C10.4,7.8,9.7,6.9,9,6z" />
                        <path
                          class="st1"
                          d="M18.2,2.7C15,3,12.3,4.4,9.6,6.2c0.3,0.4,0.6,0.8,0.8,1.1C12.9,5.4,15.4,3.9,18.2,2.7z" />
                        <path
                          class="st1"
                          d="M8.4,5.9C8.3,5.8,8.2,5.6,8.1,5.5c-0.5,0.3-0.9,0.7-1.4,1C6.9,6.6,7,6.8,7.1,6.9C7.6,6.6,8,6.3,8.4,5.9z" />
                      </g>
                    </svg>
